<svg width="194" height="31" viewBox="0 0 194 31" fill="none" xmlns="http://www.w3.org/2000/svg">
<path d="M12.9876 15.4359C12.9876 19.8828 12.9876 24.478 12.9876 28.9249C12.9876 29.9625 12.689 30.4072 11.644 30.259C10.3005 30.259 8.95696 30.1108 7.46413 30.259C6.26987 30.4072 5.97131 30.1108 5.97131 28.7767C5.97131 21.8098 5.97131 14.843 5.97131 7.87614C5.97131 6.54206 5.52346 6.09737 4.3292 6.2456C3.28422 6.39383 2.23924 6.2456 1.04498 6.2456C0.298565 6.2456 0 6.09737 0 5.20798C0 4.02214 0 2.83629 0 1.50222C0 0.761061 0.298565 0.4646 1.04498 0.4646C4.62776 0.4646 8.21055 0.4646 11.7933 0.4646C12.8383 0.4646 13.1369 0.909292 13.1369 1.79868C12.9876 6.39383 12.9876 10.989 12.9876 15.4359Z" fill="#FF0083"/>
<path d="M47.1733 13.657C46.2776 6.39368 40.0078 0.316222 32.5436 0.0197606C23.4374 -0.424932 16.1226 6.69015 16.2718 15.8805C16.2718 16.9181 16.4211 18.2521 16.7197 19.438C19.4068 29.8142 32.2451 34.2611 40.9035 27.8871C41.6499 27.2942 41.7992 26.9978 41.0528 26.2566C37.3207 22.5508 33.5886 18.8451 29.8566 15.2875C29.558 14.9911 29.4087 14.8428 29.1101 14.5464C28.6623 13.9535 28.6623 13.5088 29.1101 12.9158C29.558 12.4711 30.1551 12.4711 30.603 12.9158C30.9015 13.0641 31.2001 13.3605 31.3494 13.5088C35.0814 17.2145 38.6642 20.7721 42.3963 24.4778C43.4413 25.5155 43.5906 25.5155 44.4863 24.3296C46.5762 21.0685 47.6212 17.6592 47.1733 13.657ZM28.9609 26.2566C28.513 26.4048 28.0652 26.4048 27.6173 26.1084C25.3781 23.8849 23.1388 21.6615 20.8996 19.438C20.4518 18.8451 20.4518 18.4004 21.0489 17.8075C21.4967 17.3628 22.0939 17.2145 22.691 17.8075C24.9302 20.0309 27.1695 22.2544 29.4087 24.3296C29.7073 24.6261 29.7073 24.7743 29.7073 25.0708C29.7073 25.219 29.7073 25.5155 29.558 25.6637C29.4087 25.9601 29.2594 26.1084 28.9609 26.2566ZM31.0508 19.5862C31.3494 19.8827 31.3494 20.1791 31.3494 20.4756C31.3494 20.7721 31.2001 21.0685 31.0508 21.365C30.9015 21.365 30.9015 21.5132 30.7523 21.5132C30.3044 21.8097 29.8566 21.8097 29.4087 21.365C28.2144 20.1791 26.8709 18.9933 25.6766 17.6592C25.2288 17.2145 25.2288 16.6216 25.8259 16.0287C26.2738 15.4358 26.8709 15.4358 27.3188 15.8805C28.6623 17.0663 29.8566 18.4004 31.0508 19.5862ZM37.7685 14.5464C37.6193 14.9911 37.1714 15.1393 36.7236 15.1393C36.425 15.1393 35.9771 14.9911 35.8279 14.8428C34.6336 13.657 33.2901 12.6194 32.2451 11.2853C31.7972 10.6924 31.9465 10.2477 32.3944 9.65476C32.9915 9.21007 33.4393 9.21007 34.0365 9.65476C35.2307 10.8406 36.425 12.0265 37.6193 13.2123C37.9178 13.5088 37.9178 13.9535 37.7685 14.5464ZM42.247 13.2123C41.6499 13.657 41.202 13.657 40.6049 13.0641C38.3657 10.8406 36.2757 8.76538 34.0365 6.54192C33.5886 6.09722 33.5886 5.65253 33.7379 5.20784C33.8872 4.76315 34.335 4.61491 34.7829 4.61491C35.38 4.61491 35.6786 4.91138 36.1264 5.20784C38.0671 7.13484 40.0078 9.06184 41.7992 10.8406C41.9485 10.9888 42.0977 11.2853 42.247 11.4335C42.8441 12.1747 42.8441 12.6194 42.247 13.2123Z" fill="#FF0083"/>
<path d="M65.9828 0.0198975C57.3244 0.0198975 50.4574 6.69028 50.3081 15.4359C50.1589 23.8851 57.3244 30.8519 65.8335 30.8519C74.3426 30.8519 81.3589 24.0333 81.3589 15.5841C81.6575 7.7279 75.2383 0.0198975 65.9828 0.0198975ZM65.8335 22.9957C61.6536 22.9957 58.5187 19.7346 58.5187 15.4359C58.5187 11.2854 61.9522 8.02436 65.9828 8.02436C70.0134 8.02436 73.4469 11.4337 73.4469 15.5841C73.4469 19.7346 70.0134 22.9957 65.8335 22.9957Z" fill="#FF0083"/>
<path d="M104.499 10.682V30.6403H98.704V23.2683C97.0743 24.1674 95.0824 24.527 93.0905 24.527C90.3743 24.527 88.3824 23.9876 86.9338 22.7289C85.4851 21.4703 84.9419 19.6723 84.9419 16.9752V10.682H90.7365V16.6156C90.7365 17.8742 91.0986 18.7732 91.6419 19.3126C92.1851 19.8521 93.2716 20.2117 94.3581 20.2117C95.8067 20.2117 97.2554 19.8521 98.704 19.3126V10.682H104.499Z" fill="black"/>
<path d="M124.055 12.6598C125.685 14.0982 126.59 16.2559 126.59 19.3126V30.6403H121.158V28.123C120.071 29.9211 118.08 30.8201 115.001 30.8201C113.553 30.8201 112.104 30.6403 111.017 30.1009C109.931 29.5615 109.026 28.8422 108.482 27.9432C107.939 27.0442 107.577 25.9654 107.577 24.8865C107.577 23.0885 108.301 21.6501 109.75 20.5712C111.199 19.4924 113.371 18.953 116.269 18.953H120.796C120.796 17.6943 120.434 16.7953 119.709 16.0761C118.985 15.3569 117.717 14.9973 116.088 14.9973C115.001 14.9973 113.915 15.1771 113.009 15.5367C111.923 15.8963 111.017 16.2559 110.474 16.9751L108.301 13.0194C109.388 12.3002 110.655 11.581 112.285 11.2214C113.734 10.8618 115.363 10.682 116.993 10.682C120.071 10.3223 122.426 11.2214 124.055 12.6598ZM119.166 26.325C119.89 25.7856 120.434 25.2461 120.796 24.3471V22.1895H116.812C114.458 22.1895 113.19 22.9087 113.19 24.5269C113.19 25.2461 113.553 25.7856 114.096 26.325C114.639 26.6846 115.544 27.0442 116.45 27.0442C117.355 27.0442 118.261 26.6846 119.166 26.325Z" fill="black"/>
<path d="M134.377 29.5615C132.747 28.6625 131.299 27.4039 130.393 25.9654C129.488 24.3472 128.945 22.7289 128.945 20.7511C128.945 18.7732 129.488 16.9752 130.393 15.5367C131.299 13.9185 132.747 12.8397 134.377 11.9406C136.007 11.0416 137.999 10.682 140.172 10.682C142.345 10.682 144.155 11.0416 145.785 11.9406C147.415 12.8397 148.501 14.0983 149.226 15.7165L144.699 18.054C143.612 16.256 142.163 15.3569 140.172 15.3569C138.723 15.3569 137.455 15.8963 136.369 16.7954C135.463 17.6944 134.92 19.1328 134.92 20.7511C134.92 22.3693 135.463 23.8078 136.369 24.7068C137.274 25.6058 138.542 26.1452 140.172 26.1452C142.163 26.1452 143.612 25.2462 144.699 23.4482L149.226 25.9654C148.501 27.5837 147.415 28.8423 145.785 29.7413C144.155 30.6403 142.345 31 140.172 31C137.999 30.8201 136.188 30.4605 134.377 29.5615Z" fill="black"/>
<path d="M155.201 29.5615C153.571 28.6625 152.304 27.4039 151.217 25.9654C150.312 24.3472 149.769 22.7289 149.769 20.7511C149.769 18.7732 150.312 16.9752 151.217 15.5367C152.123 13.9185 153.39 12.8397 155.201 11.9406C157.012 11.0416 158.823 10.682 160.815 10.682C162.807 10.682 164.799 11.0416 166.428 11.9406C168.058 12.8397 169.326 14.0983 170.412 15.5367C171.317 17.155 171.861 18.7732 171.861 20.7511C171.861 22.7289 171.317 24.527 170.412 25.9654C169.507 27.5837 168.239 28.6625 166.428 29.5615C164.799 30.4605 162.807 30.8202 160.815 30.8202C158.823 30.8202 156.831 30.4605 155.201 29.5615ZM164.436 24.7068C165.342 23.628 165.885 22.3693 165.885 20.7511C165.885 19.1328 165.342 17.6944 164.436 16.7954C163.531 15.7165 162.263 15.3569 160.815 15.3569C159.366 15.3569 158.099 15.8963 157.193 16.7954C156.288 17.8742 155.744 19.1328 155.744 20.7511C155.744 22.3693 156.288 23.8078 157.193 24.7068C158.099 25.7856 159.366 26.1452 160.815 26.1452C162.263 26.1452 163.531 25.6058 164.436 24.7068Z" fill="black"/>
<path d="M193.59 24.8866C193.59 26.6846 192.866 28.1231 191.599 29.0221C190.15 29.9211 188.158 30.4605 185.442 30.4605H174.758V10.682H185.08C187.615 10.682 189.607 11.2214 190.874 12.1204C192.323 13.0195 193.047 14.2781 193.047 15.8963C193.047 16.7954 192.866 17.6944 192.323 18.4136C191.78 19.1328 191.055 19.6722 190.15 20.2117C192.504 20.9309 193.59 22.5491 193.59 24.8866ZM180.19 18.953H184.536C186.528 18.953 187.615 18.2338 187.615 16.7954C187.615 15.3569 186.528 14.6377 184.536 14.6377H180.19V18.953ZM188.158 24.527C188.158 23.8078 187.977 23.2683 187.434 22.9087C186.89 22.5491 186.166 22.3693 185.08 22.3693H180.009V26.6846H184.899C187.072 26.6846 188.158 25.9654 188.158 24.527Z" fill="black"/>
<path d="M86.9573 3.92624H85.9918V6.07689H85.041V0.97366H85.9918V3.10973H86.9871L88.48 0.97366H89.505L87.7298 3.44508L89.5719 6.07689H88.48L86.9573 3.92624Z" fill="#FF0083"/>
<path d="M97.1335 0.97366L94.8755 5.09269C94.6774 5.45721 94.4397 5.73181 94.1624 5.9165C93.8901 6.09633 93.593 6.18624 93.2711 6.18624C93.0136 6.18624 92.7586 6.13278 92.506 6.02586L92.7437 5.28224C92.9467 5.34543 93.1151 5.37702 93.2488 5.37702C93.5608 5.37702 93.8183 5.21906 94.0213 4.90315L94.103 4.77921L92.0307 0.97366H93.0631L94.6006 3.96998L96.1827 0.97366H97.1335Z" fill="#FF0083"/>
<path d="M104.787 0.97366V6.07689H103.836V1.7756H101.14V6.07689H100.189V0.97366H104.787Z" fill="#FF0083"/>
<path d="M108.637 0.97366H109.588V4.59695L112.381 0.97366H113.28V6.07689H112.329V2.46089L109.536 6.07689H108.637V0.97366Z" fill="#FF0083"/>
<path d="M121.551 0.97366H125.599V1.75373H122.502V3.00766H124.04C124.663 3.00766 125.136 3.13646 125.458 3.39405C125.785 3.64678 125.948 4.01373 125.948 4.49489C125.948 5.00035 125.77 5.3916 125.414 5.66863C125.057 5.9408 124.55 6.07689 123.891 6.07689H121.551V0.97366ZM123.839 5.34786C124.21 5.34786 124.493 5.27738 124.686 5.13644C124.879 4.99549 124.975 4.79136 124.975 4.52405C124.975 3.99915 124.597 3.73669 123.839 3.73669H122.502V5.34786H123.839Z" fill="#FF0083"/>
<path d="M133.282 5.28224V6.07689H129.383V0.97366H133.178V1.76831H130.348V3.09515H132.859V3.87521H130.348V5.28224H133.282Z" fill="#FF0083"/>
<path d="M139.105 6.14979C138.58 6.14979 138.105 6.03801 137.679 5.81444C137.258 5.58601 136.927 5.27252 136.684 4.87399C136.446 4.47545 136.327 4.02588 136.327 3.52527C136.327 3.02467 136.449 2.5751 136.691 2.17656C136.934 1.77803 137.266 1.46697 137.687 1.2434C138.113 1.01497 138.588 0.900757 139.113 0.900757C139.539 0.900757 139.927 0.97366 140.279 1.11947C140.631 1.26527 140.928 1.47669 141.17 1.75373L140.546 2.32966C140.17 1.93112 139.707 1.73185 139.157 1.73185C138.801 1.73185 138.481 1.80962 138.199 1.96514C137.917 2.11581 137.697 2.32723 137.538 2.5994C137.38 2.87157 137.3 3.1802 137.3 3.52527C137.3 3.87035 137.38 4.17897 137.538 4.45115C137.697 4.72332 137.917 4.93717 138.199 5.09269C138.481 5.24336 138.801 5.3187 139.157 5.3187C139.707 5.3187 140.17 5.117 140.546 4.7136L141.17 5.29682C140.928 5.57386 140.628 5.78528 140.272 5.93108C139.92 6.07689 139.531 6.14979 139.105 6.14979Z" fill="#FF0083"/>
<path d="M149.049 0.97366V6.07689H148.098V1.7756H145.402V6.07689H144.451V0.97366H149.049Z" fill="#FF0083"/>
<path d="M157.283 0.97366V6.07689H156.332V1.7756H154.282L154.237 3.0514C154.213 3.76586 154.153 4.34665 154.059 4.79379C153.965 5.23607 153.814 5.57386 153.606 5.80715C153.398 6.03558 153.111 6.14979 152.744 6.14979C152.616 6.14979 152.44 6.12549 152.217 6.07689L152.284 5.25308C152.348 5.27252 152.423 5.28224 152.507 5.28224C152.809 5.28224 153.022 5.10728 153.146 4.75734C153.274 4.40254 153.353 3.84605 153.383 3.08785L153.457 0.97366H157.283Z" fill="#FF0083"/>
<path d="M164.569 4.89586H161.969L161.456 6.07689H160.461L162.801 0.97366H163.752L166.099 6.07689H165.089L164.569 4.89586ZM164.249 4.15224L163.269 1.9214L162.296 4.15224H164.249Z" fill="#FF0083"/>
<path d="M172.785 1.7756H171.062V6.07689H170.104V1.7756H168.388V0.97366H172.785V1.7756Z" fill="#FF0083"/>
<path d="M180.615 0.97366V6.07689H179.649V3.88979H176.96V6.07689H175.995V0.97366H176.96V3.08056H179.649V0.97366H180.615Z" fill="#FF0083"/>
<path d="M186.857 6.14979C186.327 6.14979 185.849 6.03801 185.423 5.81444C184.997 5.58601 184.663 5.27252 184.42 4.87399C184.178 4.47059 184.056 4.02102 184.056 3.52527C184.056 3.02953 184.178 2.58239 184.42 2.18385C184.663 1.78046 184.997 1.46697 185.423 1.2434C185.849 1.01497 186.327 0.900757 186.857 0.900757C187.386 0.900757 187.864 1.01497 188.29 1.2434C188.716 1.46697 189.05 1.77803 189.293 2.17656C189.535 2.5751 189.657 3.02467 189.657 3.52527C189.657 4.02588 189.535 4.47545 189.293 4.87399C189.05 5.27252 188.716 5.58601 188.29 5.81444C187.864 6.03801 187.386 6.14979 186.857 6.14979ZM186.857 5.3187C187.203 5.3187 187.515 5.24336 187.792 5.09269C188.07 4.93717 188.288 4.72332 188.446 4.45115C188.605 4.17411 188.684 3.86549 188.684 3.52527C188.684 3.18506 188.605 2.87887 188.446 2.60669C188.288 2.32966 188.07 2.11581 187.792 1.96514C187.515 1.80962 187.203 1.73185 186.857 1.73185C186.51 1.73185 186.198 1.80962 185.921 1.96514C185.643 2.11581 185.425 2.32966 185.267 2.60669C185.109 2.87887 185.029 3.18506 185.029 3.52527C185.029 3.86549 185.109 4.17411 185.267 4.45115C185.425 4.72332 185.643 4.93717 185.921 5.09269C186.198 5.24336 186.51 5.3187 186.857 5.3187Z" fill="#FF0083"/>
<path d="M192.863 0.97366H193.963L193.777 4.38553H193.042L192.863 0.97366ZM193.413 6.12792C193.24 6.12792 193.096 6.07446 192.982 5.96753C192.868 5.85575 192.811 5.71966 192.811 5.55928C192.811 5.39889 192.868 5.26523 192.982 5.15831C193.096 5.05138 193.24 4.99792 193.413 4.99792C193.581 4.99792 193.72 5.05138 193.829 5.15831C193.943 5.26523 194 5.39889 194 5.55928C194 5.71966 193.943 5.85575 193.829 5.96753C193.72 6.07446 193.581 6.12792 193.413 6.12792Z" fill="#FF0083"/>
</svg>
